{"title":"ER Original Television Theme Music &amp; Score [EAC-FLAC] [RePoPo]","uid":4848524,"size":236673616,"categoryP":"audio","categoryS":"flac","magnet":"?xt=urn:btih:c7640fa482e63c0ccd509e9bb0a3caad569c1777&amp;dn=ER+Original+Television+Theme+Music+%26+Score+%5BEAC-FLAC%5D+%5BRePoPo%5D&amp;tr=udp%3A%2F%2Ftracker.openbittorrent.com%3A80&amp;tr=udp%3A%2F%2Fopen.demonii.com%3A1337&amp;tr=udp%3A%2F%2Ftracker.coppersurfer.tk%3A6969&amp;tr=udp%3A%2F%2Fexodus.desync.com%3A6969","seeders":1,"leechers":0,"uploader":"repopo","files":-1,"time":1239785067,"description":"*******************************************************************************\n                  ER Original Television Theme Music &amp; Score\n*******************************************************************************\n\n\n01. James Newton Howard / Theme From ER    [0:03:02.20]\n      by James Newton Howard\n\n02. Martin Davich / Dr. Lewis And Renee    [0:01:57.40]\n      From The Birthday Party\n\n03. Martin Davich / Canine Blues    [0:02:27.65]\n      From Make Of Two Hearts\n\n04. Martin Davich / Goodbye Baby Susie    [0:03:11.08]\n      From Fever Of Unknown Origin\n\n05. Martin Davich / Doug &amp; Carol    [0:01:59.20]\n      From The Gift\n\n06. Marc Cohn / Healing Hands    [0:04:25.55]\n      Performed By Marc Cohn\n\n07. Martin Davich / The Hero    [0:01:55.50]\n      From Hell And High Water\n\n08. Martin Davich / Carter, See You Next Fall    [0:01:28.67]\n      From Everything Old Is New Again\n\n09. Duncan Sheik / Reasons For Living    [0:04:33.10]\n      Performed By Duncan Sheik\n\n10. Martin Davich / Dr. Greene And A Mother's Death    [0:02:48.10]\n      From Love's Labor Lost\n\n11. Martin Davich / Raul Dies    [0:02:20.18]\n      From The Healers\n\n12. Martin Davich / Hell And High Water    [0:02:38.17]\n      From Hell And High Water\n\n13. Martin Davich / Hold On    [0:02:47.73]\n      From Hell And High Water\n\n14. Martin Davich / Shep Arrives    [0:03:37.65]\n      From The Healers\n\n15. Martin Davich / Shattered Glass    [0:02:11.10]\n      From Hell And High Water\n\n16. James Newton Howard / Theme From ER (TV Version)    [0:01:00.00]\n      TV Version\n\n17. Mike Finnegan / It Came Upon A Midnight Clear    [0:02:30.32]\n      Performed by Mike Finnegan\n\n-------------------------------------------------------------------------------\n\nExact Audio Copy V0.99 prebeta 4 from 23. January 2008\n\nEAC extraction logfile from 15. April 2009, 7:07\n\nVarious / ER: Original Television Theme Music &amp; Score\n\nUsed drive  : TOSHIBA DVD/HD  X807616   Adapter: 5  ID: 0\n\nRead mode               : Secure\nUtilize accurate stream : Yes\nDefeat audio cache      : No\nMake use of C2 pointers : No\n\nRead offset correction                      : 697\nOverread into Lead-In and Lead-Out          : No\nFill up missing offset samples with silence : Yes\nDelete leading and trailing silent blocks   : No\nNull samples used in CRC calculations       : No\nUsed interface                              : Native Win32 interface for Win NT \n&amp; 2000\nGap handling                                : Not detected, thus appended to \nprevious track\n\nUsed output format              : User Defined Encoder\nSelected bitrate                : 1024 kBit/s\nQuality                         : High\nAdd ID3 tag                     : Yes\nCommand line compressor         : F:Archivos de programaExact Audio \nCopyFLACFLAC.EXE\nAdditional command line options : -6 -V -T &quot;ARTIST=%a&quot; -T &quot;TITLE=%t&quot; -T \n&quot;ALBUM=%g&quot; -T &quot;DATE=%y&quot; -T &quot;TRACKNUMBER=%n&quot; -T &quot;GENRE=%m&quot; -T &quot;COMMENT=%e&quot; %s -o \n%d\n\n\nTOC of the extracted CD\n\n     Track |   Start  |  Length  | Start sector | End sector \n    ---------------------------------------------------------\n        1  |  0:00.32 |  3:02.20 |        32    |    13701   \n        2  |  3:02.52 |  1:57.40 |     13702    |    22516   \n        3  |  5:00.17 |  2:27.65 |     22517    |    33606   \n        4  |  7:28.07 |  3:11.08 |     33607    |    47939   \n        5  | 10:39.15 |  1:59.20 |     47940    |    56884   \n        6  | 12:38.35 |  4:25.55 |     56885    |    76814   \n        7  | 17:04.15 |  1:55.50 |     76815    |    85489   \n        8  | 18:59.65 |  1:28.67 |     85490    |    92156   \n        9  | 20:28.57 |  4:33.10 |     92157    |   112641   \n       10  | 25:01.67 |  2:48.10 |    112642    |   125251   \n       11  | 27:50.02 |  2:20.18 |    125252    |   135769   \n       12  | 30:10.20 |  2:38.17 |    135770    |   147636   \n       13  | 32:48.37 |  2:47.73 |    147637    |   160234   \n       14  | 35:36.35 |  3:37.65 |    160235    |   176574   \n       15  | 39:14.25 |  2:11.10 |    176575    |   186409   \n       16  | 41:25.35 |  1:00.00 |    186410    |   190909   \n       17  | 42:25.35 |  2:30.32 |    190910    |   202191   \n\n\n-------------------------------------------------------------------------------\n-------------------------------------------------------------------------------","torrent":{"xt":"urn:btih:c7640fa482e63c0ccd509e9bb0a3caad569c1777","amp;dn":"ER+Original+Television+Theme+Music+%26+Score+%5BEAC-FLAC%5D+%5BRePoPo%5D","amp;tr":["udp%3A%2F%2Ftracker.openbittorrent.com%3A80","udp%3A%2F%2Fopen.demonii.com%3A1337","udp%3A%2F%2Ftracker.coppersurfer.tk%3A6969","udp%3A%2F%2Fexodus.desync.com%3A6969"],"infoHash":"c7640fa482e63c0ccd509e9bb0a3caad569c1777","infoHashBuffer":{"type":"Buffer","data":[199,100,15,164,130,230,60,12,205,80,158,155,176,163,202,173,86,156,23,119]},"announce":[],"urlList":[]}}